<?xml version="1.0" encoding="UTF-8"?>
<svg id="Livello_2" data-name="Livello 2" xmlns="http://www.w3.org/2000/svg" viewBox="0 0 263.62 263.62">
  <defs>
    <style>
      .cls-1 {
        fill: #d4e8d3;
      }
    </style>
  </defs>
  <g id="Livello_1-2" data-name="Livello 1">
    <g>
      <path class="cls-1" d="M260.44,13.11c-.61-5.21-4.72-9.32-9.93-9.93-6.67-.78-163.92-18.56-221.81,39.32-59.28,59.29-8.69,187.23-6.51,192.65,1.15,2.86,3.42,5.13,6.28,6.28,3.43,1.38,56.03,22.19,109.2,22.19,30.76,0,61.73-6.97,83.45-28.7,57.89-57.89,40.11-215.14,39.32-221.81ZM240.3,99.95c-2.75,57.53-14.93,98.66-35.22,118.94-24.81,24.81-68.38,24.23-100.56,19.37-28.33-4.27-53.12-12.57-63.01-16.15-3.58-9.89-11.88-34.69-16.15-63.01-4.86-32.18-5.43-75.75,19.37-100.56,20.28-20.28,61.41-32.46,118.94-35.22,32-1.53,60.99.31,75.12,1.51,1.2,14.13,3.04,43.12,1.51,75.12Z"/>
      <path class="cls-1" d="M193.06,70.56c-4.43-4.43-11.61-4.43-16.04,0l-120.26,120.26c-4.43,4.43-4.43,11.61,0,16.04s11.61,4.43,16.04,0l120.26-120.26c4.43-4.43,4.43-11.61,0-16.04Z"/>
      <path class="cls-1" d="M136.94,150.74h0l-40.09,40.09c-4.43,4.43-4.43,11.61,0,16.04,4.43,4.43,11.61,4.43,16.04,0l14.73-14.73,25.36-25.36c6.64-6.64,17.41-6.64,24.05,0,6.64,6.64,6.64,17.41,0,24.05-6.64,6.64-17.41,6.64-24.05,0-4.43-4.43-11.61-4.43-16.04,0s-4.43,11.61,0,16.04c15.5,15.5,40.62,15.5,56.12,0,15.5-15.5,15.5-40.62,0-56.12-15.5-15.5-40.62-15.5-56.12,0Z"/>
      <path class="cls-1" d="M72.8,126.68c4.43-4.43,4.43-11.61,0-16.04-6.64-6.64-6.64-17.41,0-24.05s17.41-6.64,24.05,0,6.64,17.41,0,24.05l-25.36,25.36h0l-14.73,14.73h0c-4.43,4.43-4.43,11.61,0,16.04,4.43,4.43,11.61,4.43,16.04,0l40.09-40.09h0c15.5-15.5,15.5-40.63,0-56.12s-40.62-15.5-56.12,0c-15.5,15.5-15.5,40.62,0,56.12,4.43,4.43,11.61,4.43,16.04,0Z"/>
    </g>
  </g>
</svg>