<?xml version="1.0" encoding="UTF-8"?>
<svg id="Livello_2" data-name="Livello 2" xmlns="http://www.w3.org/2000/svg" viewBox="0 0 408.19 147.4">
  <defs>
    <style>
      .cls-1 {
        fill: #164922;
      }
    </style>
  </defs>
  <g id="Livello_1-2" data-name="Livello 1">
    <g>
      <path class="cls-1" d="M147.4,39.69c-6.26,0-11.34,5.08-11.34,11.34v57.67l-20.73-20.73-.02.02c-4.31-3.9-10.88-3.9-15.19,0l-.02-.02-20.73,20.73v-29.32h0c0-21.92-17.77-39.68-39.69-39.68S0,57.45,0,79.37s17.77,39.68,39.68,39.68h0c6.26,0,11.34-5.08,11.34-11.34s-5.08-11.34-11.34-11.34c-9.39,0-17.01-7.61-17.01-17.01s7.61-17.01,17.01-17.01,17.01,7.61,17.01,17.01v56.69h0c0,2.9,1.11,5.8,3.32,8.02,4.43,4.43,11.61,4.43,16.04,0h0l31.67-31.67,31.67,31.67h0c4.43,4.43,11.61,4.43,16.04,0,2.21-2.21,3.32-5.12,3.32-8.02V51.02c0-6.26-5.08-11.34-11.34-11.34Z"/>
      <path class="cls-1" d="M311.81,39.69h-56.69c-6.26,0-11.34,5.08-11.34,11.34s5.08,11.34,11.34,11.34h45.35v45.35c0,9.39-7.61,17.01-17.01,17.01s-17.01-7.61-17.01-17.01,7.61-17.01,17.01-17.01c6.26,0,11.34-5.08,11.34-11.34s-5.08-11.34-11.34-11.34h0c-21.92,0-39.68,17.77-39.68,39.69s17.77,39.69,39.69,39.69,39.69-17.77,39.69-39.69h0v-56.69c0-6.26-5.08-11.34-11.34-11.34Z"/>
      <path class="cls-1" d="M204.09,96.38c-6.26,0-11.34,5.08-11.34,11.34s5.08,11.34,11.34,11.34c0,0,0,0,0,0,21.92,0,39.68-17.77,39.68-39.68s-17.77-39.69-39.69-39.69-39.69,17.77-39.69,39.69h0v56.69c0,6.26,5.08,11.34,11.34,11.34h56.69c6.26,0,11.34-5.08,11.34-11.34s-5.08-11.34-11.34-11.34h-45.35v-45.35c0-9.39,7.61-17.01,17.01-17.01s17.01,7.61,17.01,17.01-7.61,17.01-17.01,17.01Z"/>
      <path class="cls-1" d="M391.18,85.04h-39.69v-9.49h0v-35.86c0-9.39,7.61-17.01,17.01-17.01s17.01,7.61,17.01,17.01-7.61,17.01-17.01,17.01h0c-6.26,0-11.34,5.08-11.34,11.34s5.08,11.34,11.34,11.34h0c21.92,0,39.68-17.77,39.68-39.68S390.42,0,368.5,0s-39.69,17.77-39.69,39.69h0v45.35h0v22.68h0v28.35c0,2.9,1.11,5.8,3.32,8.02,4.43,4.43,11.61,4.43,16.04,0,2.21-2.21,3.32-5.12,3.32-8.02v-28.35h39.69c2.9,0,5.8-1.11,8.02-3.32,4.43-4.43,4.43-11.61,0-16.04-2.21-2.21-5.12-3.32-8.02-3.32Z"/>
    </g>
  </g>
</svg>